<?xml version="1.0" encoding="UTF-8"?>
<svg id="Layer_1" xmlns="http://www.w3.org/2000/svg" version="1.1" xmlns:xlink="http://www.w3.org/1999/xlink" viewBox="0 0 1419 1118">
  <!-- Generator: Adobe Illustrator 29.2.1, SVG Export Plug-In . SVG Version: 2.1.0 Build 116)  -->
  <defs>
    <style>
      .st0 {
        fill: url(#linear-gradient2);
      }

      .st1 {
        fill: #f78501;
      }

      .st2 {
        fill: #fbb200;
      }

      .st3 {
        fill: #f99b00;
      }

      .st4 {
        fill: #ccc;
        font-family: Montserrat-Regular, Montserrat;
      }

      .st5 {
        fill: url(#linear-gradient1);
      }

      .st6 {
        fill: #f1f1f1;
        font-family: AtticAntique-DemiBold, 'Attic Antique';
        font-weight: 300;
        letter-spacing: 0em;
      }

      .st7 {
        fill: #e64e01;
      }

      .st8 {
        fill: #f67500;
      }

      .st9 {
        fill: url(#linear-gradient3);
      }

      .st10 {
        font-size: 199.4px;
      }

      .st11 {
        fill: #fdc501;
      }

      .st12 {
        fill: #fcefe7;
      }

      .st13 {
        fill: url(#linear-gradient);
      }
    </style>
    <linearGradient id="linear-gradient" x1="461.6" y1="731.5" x2="462.8" y2="852.9" gradientUnits="userSpaceOnUse">
      <stop offset="0" stop-color="#f78500"/>
      <stop offset="1" stop-color="#f16400"/>
    </linearGradient>
    <linearGradient id="linear-gradient1" x1="254.4" y1="458.4" x2="460.3" y2="776.7" gradientUnits="userSpaceOnUse">
      <stop offset="0" stop-color="#fa9500"/>
      <stop offset="1" stop-color="#f47000"/>
    </linearGradient>
    <linearGradient id="linear-gradient2" x1="821.6" y1="374.9" x2="1307.2" y2="886.1" gradientUnits="userSpaceOnUse">
      <stop offset="0" stop-color="#f15f01"/>
      <stop offset="1" stop-color="#fd9b00"/>
    </linearGradient>
    <linearGradient id="linear-gradient3" x1="757.2" y1="436.1" x2="1242.8" y2="947.3" xlink:href="#linear-gradient2"/>
  </defs>
  <g>
    <path class="st13" d="M354.1,719.5c-85,.8-171.5,4.8-253.6,8.3-5.8.2-25.7.5-27.4-5-8.9,1.1-17.8,1.6-26.6,3.3,1.4,14.2,12.8,10.1,15,15.8,7.4,19.6-5.6,99.6,0,125.5,5.5-.1,11.1.1,16.6,0,4.1-22.9-5.4-68.9,0-89,.5-1.8,3.1-5.9,5.8-5.8,13.4.4,5.2,82.7,7.5,94.8,7.2-.1,14.8-1.5,21.6-1.7,2.5-15.9-6-98.4,6.7-103.9,2.1-.9,3.6-1.1,5.8-.8,13.3,4.5,5.2,89.3,7.5,104.8,7.3-.1,14.4.1,21.6,0-.8-18.3-6.4-89,3.3-100.6,2.9-3.4,6.2-5.6,10.8-4.2,13.9,4.4,4.9,89.1,7.5,104.8,9.3-.1,18.8.1,28.3,0,3.3-22.5-9.1-95.8,12.5-108.1,45.1-25.7,27.3,89.5,30.8,108.1,12.2-.1,24.4.1,36.6,0,4.3-30.8-17.6-129.6,37.4-123,44.1,5.3,25,93.6,29.1,123,14.9,0,30,0,44.9,0,4-33.1-15.8-118.3,32.4-126.4,67.2-11.3,45.4,88.8,47.4,126.4,15.5,0,31.3-1.6,46.6-1.7,2.6-39.2-17-133.7,49.1-128,53.3,4.5,38.2,93,37.4,128,15.7,0,32.2,1.7,48.2,1.7,1.6-46-16.9-142.4,59-131.4,56,8.2,35.4,93.5,39.1,131.4,41,0,82.2,0,123,0-34-47.6-75.7-95.6-104.8-146.3-139.7-.7-279.3-1.4-419,0Z"/>
    <path class="st1" d="M83.9,460.1c6.9-1.4,6.9,11.9,7.5,17.5,1.7,15.5,0,36.7-1.7,52.4,5.8-2.3,15.2-6.7,20-8.3,2.9-15-5.3-88.7,10.8-93.1,4.3-1.2,8.3.5,10.8,4.2,8,11.8.7,65.6,3.3,82.3,9.3-2.6,19-6.1,28.3-8.3,3.4-21-11.2-109.2,19.1-113.1,36-4.5,18.2,83.1,22.4,103.1,14.5-2.1,26.2-6.9,39.9-10,4.3-35.5-17-123.9,35.8-131.4,64.7-9.2,44.3,80,47.4,118.1,13.8-2.1,27.7-5,41.6-6.7,3.5-38.1-16.4-126.3,39.1-134.7,71.3-10.7,56.8,81.1,57.4,124.7,37.3-2.7,79.1-4.7,116.4-5-21.8-47.3-45.9-93.9-73.2-138-4.7-7.6,1.9-4.7,1.7-7.5-.6-7.3-7.9-13.9,0-21.6-7.7.2-15.6.5-23.3.8-106.8,4.8-246.3,34.5-341.7,83.1-11.9,6.1-69.9,44.9-75.7,44.9-4.7,0-3.8,1.6-8.3-5-2.2,10.8-22.1,14.8-15,34.1,1.9,5.3,13.2,3.8,15,8.3,5.3,13.6-4,70.7,0,89,1.6-.9,11.6-3.5,15-5,1.7-11.6-5-72.3,7.5-74.8Z"/>
    <path class="st11" d="M369.1,466.8c-13.9,1.7-27.8,4.6-41.6,6.7-27.4,4.1-56.2,7.2-83.1,13.3-13.7,3.1-25.4,7.9-39.9,10-1.7.2-1.9,1.7-3.3,1.7,10.1-2,29.1-2.9,41.6-5,11.1-1.8,22.1-3.3,33.3-5,105.8-15.6,218-28.1,325.1-28.3,21.1,0,43.5-7.4,31.6,23.3-118.5,1.9-237.9,6.2-355,24.9-11.7,1.9-23.3,4.4-34.9,6.7-15.4,2.9-31.4,6.9-44.9,10,142-27,286.8-36,431.5-36.6,6.7,2.5,1.1,7.4,4.2,14.1,23.1,49.8,58,99.2,86.5,146.3-1.6,4.8-90.3,2.3-101.4,2.5-32.7.7-65.4,2.2-98.1,3.3-13.3.5-26.6,1.1-39.9,1.7-31,1.2-62.2,1.6-93.1,3.3-12.7.7-25.7.9-38.2,1.7-17.6,1.1-40.2,7.2-58.2,6.7,9.1,6.8-13,.5-12.5,5,162.1-8.2,324.7-16.4,487.2-13.3v24.9c-144.2-.5-288.3-.3-432.3,5l2.5,8.3c8.9-.5,17.8-1.3,26.6-1.7,71.5-3.1,143.8-4.2,215.3-5,53.5-.6,134.7,7.5,183.7,1.7,1.6-.2,9.5-1.5,10-1.7,1.8-.7-.3-6.7,6.7-3.3,0-.6,0-1.1,0-1.7,0-1.1,0-2.2,0-3.3-6.4-6.6.7-16.3-1.7-24.1-4.8-16.1-37.1-5.6-47.4-9.1-3.7-1.3-37.5-57.6-42.4-65.7-6.9-11.3-45-75.8-46.6-83.1-1.8-8.6,7.1-28.7,3.3-41.6-3.4-11.5-49.6-7.6-61.5-7.5-37.3.3-79.1,2.3-116.4,5-31.8,2.3-64.8,6.1-96.4,10Z"/>
    <path class="st2" d="M242.7,515v-21.6c-12.5,2.1-31.5,3-41.6,5-12.4,2.4-26.1,5.4-38.2,8.3-9.3,2.2-19,5.7-28.3,8.3-6.9,1.9-19.5,4.8-24.9,6.7-4.8,1.6-14.1,6-20,8.3-4.3,1.7-9.1,3.1-13.3,5-3.3,1.5-13.4,4-15,5-13.5,8-16.9,12-15,28.3,49-19.3,100-31.7,151.3-43.2,13.5-3,29.5-7,44.9-10Z"/>
    <path class="st2" d="M771.5,696.2c0-1.8-3.3-2.9,0-3.3v-1.7c-.5.2-8.4,1.5-10,1.7,4,8.4,7.1,18.6,11.6,26.6,29.1,50.7,70.7,98.7,104.8,146.3,3.3,0,6.6,0,10,0-30.4-39.7-62.2-78.8-89.8-120.6-7.8-11.8-26-36.6-26.6-49.1Z"/>
    <path class="st1" d="M69.8,413.6c85.8-65.4,197.6-100.6,303.5-118.1,37-6.1,76.7-11.3,113.9-10,7.7-.3,15.6-.7,23.3-.8-7.9,7.7-.6,14.3,0,21.6.2,2.8-6.4-.1-1.7,7.5,11.2-9.9,6.9-62.6-4.2-66.5-5.1-1.8-14.4,3-19.1-2.5l-86.5-156.3c1.8-15.1,3.4-23.7-14.1-24.1-80.5-1.7-328.8,87.9-338.4,182.1-2.3,22.5,10.2,12.8,13.3,24.9,2.6,10.2,3.8,126.3,1.7,137.2,4.5,6.5,3.6,5,8.3,5ZM302.6,198.2c1-3,26.9-14.1,29.1-14.1,1.6,0,4.8-.6,5.8.8-1.9,8.2,2.5,38,0,43.2-1.1,2.4-29.1,9.5-34.1,10.8-1.6-1.3-1.6-38.5-.8-40.7ZM179.6,228.2c1-3,22.7-12.8,25.8-17.5,1.8,1.4,1.6,43.6.8,45.7-.9,2.4-22.5,12-25.8,15.8-1.7-1.4-1.6-42-.8-44.1ZM100.6,287.2c4.2.6,4.9,31.1-3.3,31.6-1.3-4.6-2.6-32.4,3.3-31.6ZM78.8,300.6c0-1.2,0-2.4.1-3.5v3.5c0,13.5,5.9,32.1-1.7,41.4l1.5-41.4Z"/>
    <path class="st12" d="M373.3,295.5c-105.9,17.5-217.7,52.7-303.5,118.1,5.8,0,63.7-38.8,75.7-44.9,95.4-48.6,234.9-78.4,341.7-83.1-37.2-1.3-76.9,3.9-113.9,10Z"/>
    <path class="st1" d="M335.9,697.9c-89.1,4.6-174.4,13.9-262.7,24.9,1.7,5.4,21.6,5.2,27.4,5,82.1-3.5,168.6-7.5,253.6-8.3l8.3-23.3c-8.8.4-17.7,1.2-26.6,1.7Z"/>
    <path class="st5" d="M335.9,697.9l-2.5-8.3c144-5.3,288.2-5.5,432.3-5v-24.9c-162.5-3-325.1,5.1-487.2,13.3-.5-4.5,21.6,1.9,12.5-5-2.2,0-8.9.8-10-.8,4.3-28.6-14.7-116.4,25.8-123.9,58.8-10.9,42.1,86.1,42.4,118.1,12.5-.8,25.6-1,38.2-1.7,1.5-43.8-16.2-140.4,57.4-128,50.9,8.6,32.6,89.3,35.8,124.7,13.3-.5,26.6-1.2,39.9-1.7,3.5-37.9-16.6-123.3,39.1-131.4,73.9-10.7,58.1,82.9,59,128,11.1-.2,99.8,2.3,101.4-2.5-28.5-47.1-63.4-96.5-86.5-146.3-3.1-6.7,2.5-11.6-4.2-14.1-144.7.6-289.5,9.6-431.5,36.6-51.3,11.6-102.3,23.9-151.3,43.2,2,17,11.4,13.4,13.3,19.1,1.7,5.1,2.1,103.1,0,108.1-2.9,7-16.6-3.5-13.3,30.8,8.8-1.7,17.8-2.2,26.6-3.3,88.3-11.1,173.6-20.3,262.7-24.9ZM209.5,574c1.6-2.4,10.2-8.8,12.5-9.1,37.7-5.1,20.1,86.6,24.1,107.3l-40.7,5.8c-.7-34.3-6.7-71.3,4.2-103.9ZM162.1,581.5c7.8-2.1,12.7,5.6,14.1,12.5,1.2,6,2.1,82.7,0,86.5-1.2,2.1-18.7,3.2-22.4,4.2.9-15.6-7.4-99,8.3-103.1ZM122.2,593.1c12.7,3.5,11.5,89.7,9.1,94-1,1.8-17.3,3.6-20.8,4.2-.2-13.2-6.4-98.8,11.6-98.1ZM78.9,616.4c15.7-7.7,12.2,78.1,8.3,79.8-1.1.5-10,.2-10.8-.8-2.3-3.2,0-69.6,2.5-79Z"/>
    <path class="st7" d="M577.8,691.3c-71.6.8-143.9,1.9-215.3,5l-8.3,23.3c139.8-1.4,279.4-.7,419,0-4.6-8-7.6-18.2-11.6-26.6-49,5.9-130.2-2.3-183.7-1.7Z"/>
    <path class="st1" d="M632.7,483.4c11.9-30.7-10.5-23.3-31.6-23.3-107.1.2-219.3,12.6-325.1,28.3l1.7,20c117.1-18.8,236.5-23,355-24.9Z"/>
    <path class="st3" d="M276,488.4c-11.1,1.6-22.2,3.1-33.3,5v21.6c11.6-2.2,23.2-4.8,34.9-6.7l-1.7-20Z"/>
    <path class="st7" d="M778.2,686.3c69.8,1.7,139.7,2.5,209.5,5,7.2.3,14.5-.3,21.6,0,110,4.4,220.1,13.1,329.2,26.6-2.8-4.3-.3-3.5-6.7-6.7-1.1-.6-2.1-1.2-3.3-1.7-.3,0-.5-.1-.8-.2-3.2-.7-14.9-2.6-17.5-3.1-2.4-.5-5.8.4-8.3,0-5.6-1-11.2-2.5-16.6-3.3-5.3-.8-11.3-.9-16.6-1.7-7-1-14.6-2.5-21.6-3.3-6-.7-12.3-1-18.3-1.7-8.2-.9-17.5-2.6-24.9-3.3-10.9-1.1-22.4-.7-33.3-1.7-10.5-.9-21.2-2.5-31.6-3.3-13.8-1.1-27.8-2.4-41.6-3.3-12-.8-24.5-1-36.6-1.7-23.8-1.3-47.6-2.3-71.5-3.3-.7,0-1.2,0-1.7,0-17.5-.7-35.6-1-53.2-1.6-27.7-.9-55.4-1-83.1-1.7-13.4-.3-26.6-1.1-39.9-1.7-9.2-.4-18.4,0-27.4,1.7l-3.3-15c-.2,7.1-2.1,14.9-2.5,21.6,0,1.1,0,2.2,0,3.3Z"/>
    <path class="st2" d="M1025.1,701.2c-7.6,1.5-38.8-3.4-39.9,3.3l4.2,5c116.8,3.6,233.6,8.1,349.2,24.9l5-4.2c.8-11-1.6-7.4-5-12.5-109.2-13.5-219.2-22.2-329.2-26.6-2.9,14.1,9.2,5,15.8,10Z"/>
    <path class="st7" d="M779.8,707.9c2.2,3.5,4.5,6.6,6.7,10,77.2-2.7,154.8-2.2,232,0,106.8,3,213.6,11.8,320.1,16.6-115.6-16.9-232.4-21.4-349.2-24.9-69.7-2.1-139.8-5.6-209.5-1.7Z"/>
    <path class="st0" d="M1363.5,618.9c-.1-2.3-4.9-11-5-11.6-1.5-23.9,1.4-49.1-1.7-73.2-43.7-31.4-100.3-51.3-152.1-65.7-133.3-36.9-276.6-47.8-414-61.5l-5,76.5-133-1.7-5-6.7-3.3,23.3c235.8-.3,482.8,11.4,700.9,105.6-1.7,2.9-5,1.5-7.5.8-15.9-4.3-40.4-18.9-58.2-24.9-199.1-67.9-422.5-78.6-631.9-78.2l69.8,124.7c1.8-19.2-.8-37.4,10.8-54,17.4-25,57.8-25.4,74.8,0,16.3,24.3,4.8,73.4,8.3,102.3,13.3.6,26.5,1.3,39.9,1.7-.6-32.7-12.3-96.9,20.8-116.4,28.9-17,67.3.2,72.3,34.1,1.1,7.2,1.6,77.8,0,81.5-1.6,3.7-7.1,2.3-10,2.5,17.6.6,35.6.9,53.2,1.6-3-.4-2.9-2.7-3.3-5.8-4.8-37.3-10-124.5,49.1-113.9,43.4,7.8,25.9,92.8,27.4,123,12.1.7,24.6.9,36.6,1.7.8-23.1-16.3-114.9,27.4-104.8,24.4,5.6,18.1,80,17.5,100.6,0,3,1.7,8.2-3.3,7.5,10.4.8,21.1,2.4,31.6,3.3-1.3-17.5-7.6-88.3,9.1-96.4,37.5-18.2,24.6,81.1,24.1,98.1,7.4.7,16.7,2.4,24.9,3.3,2.8-17.6-5.1-76.9,3.3-89,1.8-2.6,4-4.5,7.5-4.2,15.5,1.6,8.3,81.1,7.5,94.8,7,.8,14.6,2.3,21.6,3.3,1.4-27.3-3.4-55.8,3.3-82.3,1.6-2.1,3-3.1,5.8-2.5,12.7,2.6,5.6,73.8,7.5,86.5,5.5.9,11.1,2.3,16.6,3.3l2.5-68.2c10.9-2.6,8.2,61,5.8,68.2,2.6.5,14.3,2.5,17.5,3.1-7-1.8-4.4-19.8-4.2-25.6,2.2-70.7,16.5,6.6,8.3,27.4,6.3,3.2,3.8,2.4,6.7,6.7,3.4,5.1,5.8,1.5,5,12.5l-5,4.2c-106.5-4.9-213.3-13.6-320.1-16.6-77.2-2.2-154.8-2.7-232,0,19,29.3,37.9,58.6,59,86.5.6-33.8,18-67.2,56.5-61.5,50.6,7.4,35.1,88.4,37.4,123,13.8,0,28.1-1.7,41.6-1.7,3.6-34-18-126.5,44.1-114.7,40.2,7.6,21.6,88.1,25.8,116.4,12.7,0,25.5,0,38.2,0,4.3-22.4-14.9-115.4,27.4-108.1,31,5.4,15.3,85.6,19.1,108.1,10.2,0,20.5,0,30.8,0,1.3,0,0-3.3,2.5-3.3,4.2-17.8-12.4-104.9,19.1-101.4,27.8,3.1,14.2,85.2,17.5,104.8,7.7,0,15.6,0,23.3,0,2.9-18.1-5.2-85.7,3.3-97.3,7.7-10.4,15.2,2.2,16.6,10,4.4,24.3-3.3,61.6,0,87.3,7.1.1,14.6-.1,21.6,0-1.7-11.7-6.1-97.4,5.8-98.1,13.9-.8,9,86.4,7.5,98.1,6,.2,12.6-.2,18.3,0-.3-19.9-5.2-53.7-1.7-72.3.5-2.4,2.1-9.4,5.8-9.1,9.7.6,5.8,70.9,4.2,81.5,3.8.2,8.9,1.4,13.3,1.7,2.9-21.5-4.1-55.8,0-75.7.3-1.6,2.9-8.3,5.8-7.5l.8,83.1c11.6.4,23.3-.3,34.9,0-2.1-82.1,3-166.7-1.7-248.6ZM968.6,485.1c-4.8,0-34.5-2.4-35.8-4.2-1.1-1.5.2-32.5.8-37.4,5.4,1.8,34.1,2.5,35.8,5.8.8,1.6.6,34.7-.8,35.8ZM1088.3,496.7c-4.7,0-34.8-4.3-35.8-5.8-.9-1.5-.5-33,.8-34.1,5,1.7,34.6,4.8,35.8,7.5.6,1.5-.8,28.3-.8,32.4ZM1204.7,515c-4.7-.1-34.9-5.9-35.8-7.5-.9-1.6-.9-29.5,2.5-30.8,27.3,8.8,40.2,2,33.3,38.2Z"/>
    <path class="st9" d="M987.6,679.6c.5,0,1,0,1.7,0-.6,0-1.1,0-1.7,0Z"/>
    <path class="st8" d="M985.2,699.6c4.3-2.8,2.2-4.3,2.5-8.3-69.8-2.5-139.7-3.3-209.5-5,0,.6,0,1.1,0,1.7,0,.8,9.4,5.2-6.7,5-3.3.4,0,1.5,0,3.3,3.1.8,3.6,4.2,5,6.7l5.8-5c27.5-5.1,190.9,9.4,202.9,1.7Z"/>
    <path class="st1" d="M989.4,709.5l-4.2-5c1.1-6.7,32.3-1.9,39.9-3.3-6.6-5-18.7,4.1-15.8-10-7.2-.3-14.5.3-21.6,0-.3,4,1.8,5.5-2.5,8.3-12,7.8-175.4-6.7-202.9-1.7l-5.8,5c1,1.8,2.3,3.3,3.3,5,69.7-3.9,139.8-.5,209.5,1.7Z"/>
  </g>
  <text class="st10" transform="translate(45 1061.4)"><tspan class="st4" x="0" y="0">AI </tspan><tspan class="st6" x="255.4" y="0">Colosseum</tspan></text>
</svg>