<?xml version="1.0" encoding="UTF-8"?>
<svg id="Mistral-Ai--Streamline-Svg-Logos" xmlns="http://www.w3.org/2000/svg" version="1.1" viewBox="0 0 24 8.4">
  <!-- Generator: Adobe Illustrator 29.2.1, SVG Export Plug-In . SVG Version: 2.1.0 Build 116)  -->
  <defs>
    <style>
      .st0 {
        fill: #f7d046;
      }

      .st1 {
        fill: #ea3326;
      }

      .st2 {
        fill: #fff;
      }

      .st3 {
        fill: #ee792f;
      }

      .st4 {
        fill: #eb5829;
      }

      .st5 {
        fill: #f2a73b;
      }
    </style>
  </defs>
  <path class="st2" d="M10.2,1.9h.5l.2.8v.3h0v-.3c0,0,.3-.8.3-.8h.5v2.2h-.4v-.7h0c0-.3,0-.8,0-1h0l-.2.6-.2.5h-.2l-.2-.5-.2-.6h0,0c0,.3,0,.8,0,1v.7h-.4V1.9ZM12.2,3.6h.5v-1.3h-.5v-.4h1.5v.4h-.5v1.3h.5v.4h-1.5v-.4ZM14.2,3.7l.3-.3c.2.1.4.2.6.2s.3,0,.3-.2c0-.2-.1-.2-.3-.3h-.3c-.2-.2-.5-.4-.5-.7s.3-.6.8-.6.5,0,.7.3l-.2.3c-.2-.1-.3-.2-.5-.2s-.3,0-.3.2.1.2.4.3h.3c.3.2.5.4.5.7s-.3.7-.8.7-.6-.1-.8-.3ZM16.7,2.3h-.6v-.4h1.8v.4h-.6v1.7h-.5v-1.7ZM18.7,2.2h.2c.3,0,.4,0,.4.3s-.1.3-.4.3h-.2s0-.6,0-.6ZM19.9,4l-.5-.9c.2-.1.4-.3.4-.6,0-.5-.4-.7-.8-.7h-.8s0,2.2,0,2.2h.5v-.8h.3l.4.8s.5,0,.5,0ZM20.7,3.1v-.2c0,0,.2-.7.2-.7h0c0,.2,0,.3.1.5v.4c0,0-.4,0-.4,0ZM21.4,4h.5l-.7-2.2h-.6l-.7,2.2h.5v-.5h.8s.1.5.1.5ZM22.3,1.9h.5v1.7h1v.4h-1.4V1.9Z"/>
  <path class="st2" d="M10.8,6.6v-.2c0,0,.2-.7.2-.7h0c0,.2,0,.3.1.5v.4c0,0-.4,0-.4,0ZM11.5,7.5h.5l-.7-2.2h-.6l-.7,2.2h.5v-.5h.8s.1.5.1.5ZM12.2,7.1h.5v-1.3h-.5v-.4h1.5v.4h-.5v1.3h.5v.4h-1.5v-.4ZM14.2,7.7h1.6v.4h-1.6v-.4Z"/>
  <path class="st2" d="M7.3.6h-1.4v1.4h1.4V.6Z"/>
  <path class="st0" d="M8,.6h-1.4v1.4h1.4V.6Z"/>
  <path class="st2" d="M1.7.6H.2v1.4h1.4V.6Z"/>
  <path class="st2" d="M1.7,2H.2v1.4h1.4v-1.4Z"/>
  <path class="st2" d="M1.7,3.4H.2v1.4h1.4v-1.4Z"/>
  <path class="st2" d="M1.7,4.8H.2v1.4h1.4v-1.4Z"/>
  <path class="st2" d="M1.7,6.2H.2v1.4h1.4v-1.4Z"/>
  <path class="st0" d="M2.4.6H1v1.4h1.4V.6Z"/>
  <path class="st5" d="M8,2h-1.4v1.4h1.4v-1.4Z"/>
  <path class="st5" d="M2.4,2H1v1.4h1.4v-1.4Z"/>
  <path class="st2" d="M5.9,2h-1.4v1.4h1.4v-1.4Z"/>
  <path class="st5" d="M6.6,2h-1.4v1.4h1.4v-1.4Z"/>
  <path class="st5" d="M3.8,2h-1.4v1.4h1.4s0-1.4,0-1.4Z"/>
  <path class="st3" d="M5.2,3.4h-1.4v1.4h1.4v-1.4Z"/>
  <path class="st3" d="M6.6,3.4h-1.4v1.4h1.4v-1.4Z"/>
  <path class="st3" d="M3.8,3.4h-1.4v1.4h1.4s0-1.4,0-1.4Z"/>
  <path class="st2" d="M4.5,4.8h-1.4v1.4h1.4v-1.4Z"/>
  <path class="st4" d="M5.2,4.8h-1.4v1.4h1.4v-1.4Z"/>
  <path class="st3" d="M8,3.4h-1.4v1.4h1.4v-1.4Z"/>
  <path class="st3" d="M2.4,3.4H1v1.4h1.4v-1.4Z"/>
  <path class="st2" d="M7.3,4.8h-1.4v1.4h1.4v-1.4Z"/>
  <path class="st4" d="M8,4.8h-1.4v1.4h1.4v-1.4Z"/>
  <path class="st2" d="M7.3,6.2h-1.4v1.4h1.4v-1.4Z"/>
  <path class="st4" d="M2.4,4.8H1v1.4h1.4v-1.4Z"/>
  <path class="st1" d="M8,6.2h-1.4v1.4h1.4v-1.4Z"/>
  <path class="st1" d="M2.4,6.2H1v1.4h1.4v-1.4Z"/>
</svg>