<?xml version="1.0" encoding="UTF-8"?>
<svg id="Layer_1" xmlns="http://www.w3.org/2000/svg" version="1.1" xmlns:xlink="http://www.w3.org/1999/xlink" viewBox="0 0 1770 266">
  <!-- Generator: Adobe Illustrator 29.2.1, SVG Export Plug-In . SVG Version: 2.1.0 Build 116)  -->
  <defs>
    <style>
      .st0 {
        fill: url(#linear-gradient2);
      }

      .st1 {
        fill: #f78501;
      }

      .st2 {
        fill: #fbb200;
      }

      .st3 {
        fill: #f99b00;
      }

      .st4 {
        fill: #ccc;
        font-family: Montserrat-Regular, Montserrat;
      }

      .st5 {
        fill: url(#linear-gradient1);
      }

      .st6 {
        fill: #f1f1f1;
        font-family: AtticAntique-DemiBold, 'Attic Antique';
        font-weight: 300;
        letter-spacing: 0em;
      }

      .st7 {
        fill: #e64e01;
      }

      .st8 {
        fill: #f67500;
      }

      .st9 {
        fill: url(#linear-gradient3);
      }

      .st10 {
        font-size: 199.4px;
      }

      .st11 {
        fill: #fdc501;
      }

      .st12 {
        fill: #fcefe7;
      }

      .st13 {
        fill: url(#linear-gradient);
      }
    </style>
    <linearGradient id="linear-gradient" x1="138.9" y1="184.8" x2="139.2" y2="211.2" gradientUnits="userSpaceOnUse">
      <stop offset="0" stop-color="#f78500"/>
      <stop offset="1" stop-color="#f16400"/>
    </linearGradient>
    <linearGradient id="linear-gradient1" x1="93.8" y1="125.3" x2="138.7" y2="194.6" gradientUnits="userSpaceOnUse">
      <stop offset="0" stop-color="#fa9500"/>
      <stop offset="1" stop-color="#f47000"/>
    </linearGradient>
    <linearGradient id="linear-gradient2" x1="217.3" y1="107.1" x2="323" y2="218.4" gradientUnits="userSpaceOnUse">
      <stop offset="0" stop-color="#f15f01"/>
      <stop offset="1" stop-color="#fd9b00"/>
    </linearGradient>
    <linearGradient id="linear-gradient3" x1="203.3" y1="120.4" x2="309" y2="231.7" xlink:href="#linear-gradient2"/>
  </defs>
  <g>
    <path class="st13" d="M115.6,182.1c-18.5.2-37.3,1-55.2,1.8-1.3,0-5.6,0-6-1.1-1.9.2-3.9.3-5.8.7.3,3.1,2.8,2.2,3.3,3.4,1.6,4.3-1.2,21.7,0,27.3,1.2,0,2.4,0,3.6,0,.9-5-1.2-15,0-19.4.1-.4.7-1.3,1.3-1.3,2.9,0,1.1,18,1.6,20.6,1.6,0,3.2-.3,4.7-.4.6-3.5-1.3-21.4,1.4-22.6.5-.2.8-.2,1.3-.2,2.9,1,1.1,19.4,1.6,22.8,1.6,0,3.1,0,4.7,0-.2-4-1.4-19.4.7-21.9.6-.7,1.3-1.2,2.4-.9,3,1,1.1,19.4,1.6,22.8,2,0,4.1,0,6.2,0,.7-4.9-2-20.9,2.7-23.5,9.8-5.6,5.9,19.5,6.7,23.5,2.6,0,5.3,0,8,0,.9-6.7-3.8-28.2,8.1-26.8,9.6,1.1,5.4,20.4,6.3,26.8,3.3,0,6.5,0,9.8,0,.9-7.2-3.4-25.7,7.1-27.5,14.6-2.4,9.9,19.3,10.3,27.5,3.4,0,6.8-.3,10.1-.4.6-8.5-3.7-29.1,10.7-27.9,11.6,1,8.3,20.2,8.1,27.9,3.4,0,7,.4,10.5.4.3-10-3.7-31,12.8-28.6,12.2,1.8,7.7,20.4,8.5,28.6,8.9,0,17.9,0,26.8,0-7.4-10.4-16.5-20.8-22.8-31.8-30.4-.2-60.8-.3-91.2,0Z"/>
    <path class="st1" d="M56.8,125.7c1.5-.3,1.5,2.6,1.6,3.8.4,3.4,0,8-.4,11.4,1.3-.5,3.3-1.5,4.3-1.8.6-3.3-1.1-19.3,2.4-20.3.9-.3,1.8.1,2.4.9,1.8,2.6.2,14.3.7,17.9,2-.6,4.1-1.3,6.2-1.8.7-4.6-2.4-23.8,4.2-24.6,7.8-1,4,18.1,4.9,22.4,3.1-.4,5.7-1.5,8.7-2.2.9-7.7-3.7-27,7.8-28.6,14.1-2,9.7,17.4,10.3,25.7,3-.5,6-1.1,9-1.4.8-8.3-3.6-27.5,8.5-29.3,15.5-2.3,12.4,17.6,12.5,27.1,8.1-.6,17.2-1,25.3-1.1-4.7-10.3-10-20.4-15.9-30-1-1.7.4-1,.4-1.6-.1-1.6-1.7-3,0-4.7-1.7,0-3.4.1-5.1.2-23.2,1-53.6,7.5-74.4,18.1-2.6,1.3-15.2,9.8-16.5,9.8-1,0-.8.3-1.8-1.1-.5,2.4-4.8,3.2-3.3,7.4.4,1.2,2.9.8,3.3,1.8,1.2,3-.9,15.4,0,19.4.3-.2,2.5-.8,3.3-1.1.4-2.5-1.1-15.7,1.6-16.3Z"/>
    <path class="st11" d="M118.8,127.1c-3,.4-6,1-9,1.4-6,.9-12.2,1.6-18.1,2.9-3,.7-5.5,1.7-8.7,2.2-.4,0-.4.4-.7.4,2.2-.4,6.3-.6,9-1.1,2.4-.4,4.8-.7,7.2-1.1,23-3.4,47.4-6.1,70.8-6.2,4.6,0,9.5-1.6,6.9,5.1-25.8.4-51.8,1.3-77.3,5.4-2.5.4-5.1,1-7.6,1.4-3.4.6-6.8,1.5-9.8,2.2,30.9-5.9,62.4-7.8,93.9-8,1.5.5.2,1.6.9,3.1,5,10.8,12.6,21.6,18.8,31.8-.4,1-19.7.5-22.1.5-7.1.2-14.2.5-21.4.7-2.9.1-5.8.2-8.7.4-6.7.3-13.5.4-20.3.7-2.8.2-5.6.2-8.3.4-3.8.2-8.7,1.6-12.7,1.4,2,1.5-2.8.1-2.7,1.1,35.3-1.8,70.7-3.6,106-2.9v5.4c-31.4-.1-62.8,0-94.1,1.1l.5,1.8c1.9,0,3.9-.3,5.8-.4,15.6-.7,31.3-.9,46.9-1.1,11.7-.1,29.3,1.6,40,.4.3,0,2.1-.3,2.2-.4.4-.1,0-1.4,1.4-.7,0-.1,0-.2,0-.4,0-.2,0-.5,0-.7-1.4-1.4.1-3.5-.4-5.2-1.1-3.5-8.1-1.2-10.3-2-.8-.3-8.2-12.5-9.2-14.3-1.5-2.5-9.8-16.5-10.1-18.1-.4-1.9,1.6-6.3.7-9-.7-2.5-10.8-1.6-13.4-1.6-8.1,0-17.2.5-25.3,1.1-6.9.5-14.1,1.3-21,2.2Z"/>
    <path class="st2" d="M91.3,137.6v-4.7c-2.7.5-6.8.7-9,1.1-2.7.5-5.7,1.2-8.3,1.8-2,.5-4.1,1.2-6.2,1.8-1.5.4-4.2,1-5.4,1.4-1,.3-3.1,1.3-4.3,1.8-.9.4-2,.7-2.9,1.1-.7.3-2.9.9-3.3,1.1-2.9,1.7-3.7,2.6-3.3,6.2,10.7-4.2,21.8-6.9,32.9-9.4,2.9-.7,6.4-1.5,9.8-2.2Z"/>
    <path class="st2" d="M206.4,177.1c0-.4-.7-.6,0-.7v-.4c-.1,0-1.8.3-2.2.4.9,1.8,1.5,4.1,2.5,5.8,6.3,11,15.4,21.5,22.8,31.8.7,0,1.4,0,2.2,0-6.6-8.6-13.5-17.1-19.5-26.2-1.7-2.6-5.7-8-5.8-10.7Z"/>
    <path class="st1" d="M53.7,115.5c18.7-14.2,43-21.9,66-25.7,8-1.3,16.7-2.5,24.8-2.2,1.7,0,3.4-.1,5.1-.2-1.7,1.7-.1,3.1,0,4.7,0,.6-1.4,0-.4,1.6,2.4-2.2,1.5-13.6-.9-14.5-1.1-.4-3.1.7-4.2-.5l-18.8-34c.4-3.3.7-5.2-3.1-5.2-17.5-.4-71.5,19.1-73.6,39.6-.5,4.9,2.2,2.8,2.9,5.4.6,2.2.8,27.5.4,29.9,1,1.4.8,1.1,1.8,1.1ZM104.3,68.7c.2-.7,5.9-3.1,6.3-3.1.4,0,1.1-.1,1.3.2-.4,1.8.5,8.3,0,9.4-.2.5-6.3,2.1-7.4,2.4-.3-.3-.3-8.4-.2-8.9ZM77.6,75.2c.2-.6,4.9-2.8,5.6-3.8.4.3.4,9.5.2,10-.2.5-4.9,2.6-5.6,3.4-.4-.3-.3-9.1-.2-9.6ZM60.4,88c.9.1,1.1,6.8-.7,6.9-.3-1-.6-7.1.7-6.9ZM55.6,91c0-.3,0-.5,0-.8v.8c0,2.9,1.3,7-.4,9l.3-9Z"/>
    <path class="st12" d="M119.7,89.9c-23,3.8-47.4,11.5-66,25.7,1.3,0,13.9-8.4,16.5-9.8,20.8-10.6,51.1-17.1,74.4-18.1-8.1-.3-16.7.8-24.8,2.2Z"/>
    <path class="st1" d="M111.6,177.4c-19.4,1-38,3-57.2,5.4.4,1.2,4.7,1.1,6,1.1,17.9-.8,36.7-1.6,55.2-1.8l1.8-5.1c-1.9,0-3.9.3-5.8.4Z"/>
    <path class="st5" d="M111.6,177.4l-.5-1.8c31.3-1.2,62.7-1.2,94.1-1.1v-5.4c-35.4-.7-70.7,1.1-106,2.9-.1-1,4.7.4,2.7-1.1-.5,0-1.9.2-2.2-.2.9-6.2-3.2-25.3,5.6-27,12.8-2.4,9.2,18.7,9.2,25.7,2.7-.2,5.6-.2,8.3-.4.3-9.5-3.5-30.6,12.5-27.9,11.1,1.9,7.1,19.4,7.8,27.1,2.9-.1,5.8-.3,8.7-.4.8-8.2-3.6-26.8,8.5-28.6,16.1-2.3,12.6,18,12.8,27.9,2.4,0,21.7.5,22.1-.5-6.2-10.2-13.8-21-18.8-31.8-.7-1.5.6-2.5-.9-3.1-31.5.1-63,2.1-93.9,8-11.2,2.5-22.3,5.2-32.9,9.4.4,3.7,2.5,2.9,2.9,4.2.4,1.1.5,22.4,0,23.5-.6,1.5-3.6-.8-2.9,6.7,1.9-.4,3.9-.5,5.8-.7,19.2-2.4,37.8-4.4,57.2-5.4ZM84.1,150.5c.4-.5,2.2-1.9,2.7-2,8.2-1.1,4.4,18.8,5.2,23.3l-8.9,1.3c-.2-7.5-1.4-15.5.9-22.6ZM73.8,152.1c1.7-.4,2.8,1.2,3.1,2.7.3,1.3.4,18,0,18.8-.3.5-4.1.7-4.9.9.2-3.4-1.6-21.5,1.8-22.4ZM65.1,154.6c2.8.8,2.5,19.5,2,20.4-.2.4-3.8.8-4.5.9,0-2.9-1.4-21.5,2.5-21.4ZM55.7,159.7c3.4-1.7,2.7,17,1.8,17.4-.2.1-2.2,0-2.4-.2-.5-.7,0-15.1.5-17.2Z"/>
    <path class="st7" d="M164.2,176c-15.6.2-31.3.4-46.9,1.1l-1.8,5.1c30.4-.3,60.8-.2,91.2,0-1-1.7-1.7-4-2.5-5.8-10.7,1.3-28.3-.5-40-.4Z"/>
    <path class="st1" d="M176.2,130.7c2.6-6.7-2.3-5.1-6.9-5.1-23.3,0-47.7,2.7-70.8,6.2l.4,4.3c25.5-4.1,51.5-5,77.3-5.4Z"/>
    <path class="st3" d="M98.6,131.8c-2.4.4-4.8.7-7.2,1.1v4.7c2.5-.5,5.1-1,7.6-1.4l-.4-4.3Z"/>
    <path class="st7" d="M207.8,174.9c15.2.4,30.4.5,45.6,1.1,1.6,0,3.1,0,4.7,0,23.9,1,47.9,2.8,71.7,5.8-.6-.9,0-.8-1.4-1.4-.2-.1-.5-.3-.7-.4,0,0-.1,0-.2,0-.7-.1-3.3-.6-3.8-.7-.5-.1-1.3,0-1.8,0-1.2-.2-2.4-.5-3.6-.7-1.2-.2-2.5-.2-3.6-.4-1.5-.2-3.2-.5-4.7-.7-1.3-.2-2.7-.2-4-.4-1.8-.2-3.8-.6-5.4-.7-2.4-.2-4.9-.2-7.2-.4-2.3-.2-4.6-.6-6.9-.7-3-.2-6.1-.5-9-.7-2.6-.2-5.3-.2-8-.4-5.2-.3-10.4-.5-15.6-.7-.1,0-.3,0-.4,0-3.8-.2-7.7-.2-11.6-.3-6-.2-12.1-.2-18.1-.4-2.9,0-5.8-.2-8.7-.4-2,0-4,0-6,.4l-.7-3.3c0,1.5-.5,3.3-.5,4.7,0,.2,0,.5,0,.7Z"/>
    <path class="st2" d="M261.6,178.2c-1.7.3-8.4-.7-8.7.7l.9,1.1c25.4.8,50.8,1.8,76,5.4l1.1-.9c.2-2.4-.3-1.6-1.1-2.7-23.8-2.9-47.7-4.8-71.7-5.8-.6,3.1,2,1.1,3.4,2.2Z"/>
    <path class="st7" d="M208.2,179.6c.5.8,1,1.4,1.4,2.2,16.8-.6,33.7-.5,50.5,0,23.2.6,46.5,2.6,69.7,3.6-25.1-3.7-50.6-4.6-76-5.4-15.2-.5-30.4-1.2-45.6-.4Z"/>
    <path class="st0" d="M335.2,160.2c0-.5-1.1-2.4-1.1-2.5-.3-5.2.3-10.7-.4-15.9-9.5-6.8-21.8-11.2-33.1-14.3-29-8-60.2-10.4-90.1-13.4l-1.1,16.6-29-.4-1.1-1.4-.7,5.1c51.3,0,105.1,2.5,152.5,23-.4.6-1.1.3-1.6.2-3.5-.9-8.8-4.1-12.7-5.4-43.3-14.8-92-17.1-137.5-17l15.2,27.1c.4-4.2-.2-8.1,2.4-11.8,3.8-5.4,12.6-5.5,16.3,0,3.6,5.3,1,16,1.8,22.3,2.9.1,5.8.3,8.7.4-.1-7.1-2.7-21.1,4.5-25.3,6.3-3.7,14.6,0,15.7,7.4.2,1.6.4,16.9,0,17.7-.4.8-1.5.5-2.2.5,3.8.1,7.8.2,11.6.3-.7,0-.6-.6-.7-1.3-1.1-8.1-2.2-27.1,10.7-24.8,9.4,1.7,5.6,20.2,6,26.8,2.6.1,5.4.2,8,.4.2-5-3.6-25,6-22.8,5.3,1.2,3.9,17.4,3.8,21.9,0,.7.4,1.8-.7,1.6,2.3.2,4.6.5,6.9.7-.3-3.8-1.6-19.2,2-21,8.2-4,5.4,17.6,5.2,21.4,1.6.2,3.6.5,5.4.7.6-3.8-1.1-16.7.7-19.4.4-.6.9-1,1.6-.9,3.4.4,1.8,17.6,1.6,20.6,1.5.2,3.2.5,4.7.7.3-6-.7-12.1.7-17.9.4-.5.7-.7,1.3-.5,2.8.6,1.2,16.1,1.6,18.8,1.2.2,2.4.5,3.6.7l.5-14.8c2.4-.6,1.8,13.3,1.3,14.8.6.1,3.1.5,3.8.7-1.5-.4-1-4.3-.9-5.6.5-15.4,3.6,1.4,1.8,6,1.4.7.8.5,1.4,1.4.7,1.1,1.3.3,1.1,2.7l-1.1.9c-23.2-1.1-46.4-3-69.7-3.6-16.8-.5-33.7-.6-50.5,0,4.1,6.4,8.2,12.8,12.8,18.8.1-7.4,3.9-14.6,12.3-13.4,11,1.6,7.6,19.2,8.1,26.8,3,0,6.1-.4,9-.4.8-7.4-3.9-27.5,9.6-25,8.7,1.7,4.7,19.2,5.6,25.3,2.8,0,5.6,0,8.3,0,.9-4.9-3.3-25.1,6-23.5,6.7,1.2,3.3,18.6,4.2,23.5,2.2,0,4.5,0,6.7,0,.3,0,0-.7.5-.7.9-3.9-2.7-22.8,4.2-22.1,6.1.7,3.1,18.5,3.8,22.8,1.7,0,3.4,0,5.1,0,.6-3.9-1.1-18.6.7-21.2,1.7-2.3,3.3.5,3.6,2.2,1,5.3-.7,13.4,0,19,1.6,0,3.2,0,4.7,0-.4-2.5-1.3-21.2,1.3-21.4,3-.2,2,18.8,1.6,21.4,1.3,0,2.7,0,4,0,0-4.3-1.1-11.7-.4-15.7,0-.5.4-2.1,1.3-2,2.1.1,1.3,15.4.9,17.7.8,0,1.9.3,2.9.4.6-4.7-.9-12.2,0-16.5,0-.3.6-1.8,1.3-1.6l.2,18.1c2.5,0,5.1,0,7.6,0-.4-17.9.6-36.3-.4-54.1ZM249.3,131.1c-1.1,0-7.5-.5-7.8-.9-.2-.3,0-7.1.2-8.1,1.2.4,7.4.6,7.8,1.3.2.3.1,7.6-.2,7.8ZM275.3,133.6c-1,0-7.6-.9-7.8-1.3-.2-.3-.1-7.2.2-7.4,1.1.4,7.5,1,7.8,1.6.1.3-.2,6.2-.2,7.1ZM300.7,137.6c-1,0-7.6-1.3-7.8-1.6-.2-.3-.2-6.4.5-6.7,5.9,1.9,8.7.4,7.2,8.3Z"/>
    <path class="st9" d="M253.4,173.4c.1,0,.2,0,.4,0-.1,0-.2,0-.4,0Z"/>
    <path class="st8" d="M252.9,177.8c.9-.6.5-.9.5-1.8-15.2-.5-30.4-.7-45.6-1.1,0,.1,0,.2,0,.4,0,.2,2.1,1.1-1.4,1.1-.7,0,0,.3,0,.7.7.2.8.9,1.1,1.4l1.3-1.1c6-1.1,41.5,2,44.2.4Z"/>
    <path class="st1" d="M253.8,180l-.9-1.1c.2-1.5,7-.4,8.7-.7-1.4-1.1-4.1.9-3.4-2.2-1.6,0-3.1,0-4.7,0,0,.9.4,1.2-.5,1.8-2.6,1.7-38.2-1.5-44.2-.4l-1.3,1.1c.2.4.5.7.7,1.1,15.2-.9,30.4-.1,45.6.4Z"/>
  </g>
  <text class="st10" transform="translate(390.9 216.6)"><tspan class="st4" x="0" y="0">AI </tspan><tspan class="st6" x="255.4" y="0">Colosseum</tspan></text>
</svg>